<?xml version="1.0" encoding="iso-8859-1"?>
<!-- Generator: Adobe Illustrator 16.0.0, SVG Export Plug-In . SVG Version: 6.00 Build 0)  -->
<!DOCTYPE svg PUBLIC "-//W3C//DTD SVG 1.1//EN" "http://www.w3.org/Graphics/SVG/1.1/DTD/svg11.dtd">
<svg version="1.1" id="Capa_1" xmlns="http://www.w3.org/2000/svg" xmlns:xlink="http://www.w3.org/1999/xlink" x="0px" y="0px"
	 width="241.894px" height="241.894px" viewBox="0 0 241.894 241.894" style="enable-background:new 0 0 241.894 241.894;"
	 xml:space="preserve">
<g>
	<g>
		<polygon points="0.625,64.505 0.625,241.894 38.252,241.894 59.754,241.894 59.754,64.505 38.252,64.505 		"/>
		<path d="M239.274,112.884l-0.052,0.302c0.021-0.103,0.031-0.199,0.042-0.302h-39.749c-2.971,0-5.375-2.41-5.375-5.375
			s2.404-5.375,5.375-5.375h40.608c-0.272-21.851-13.559-37.628-37.774-37.628h-46.025c0.041-0.656,0.188-1.273,0.188-1.94V28.816
			C156.511,12.901,143.609,0,127.693,0h-6.869c-15.917,0-28.817,12.901-28.817,28.816v33.749c0,0.667,0.149,1.284,0.194,1.94H70.505
			v177.389h113.387c21.864,0,30.604-13.407,35.947-32.253h-36.451c-2.971,0-5.375-2.405-5.375-5.376s2.404-5.376,5.375-5.376h39.076
			c0.053-0.226,0.106-0.449,0.148-0.676c17.022-15.093,7.232-36.709,7.232-36.709l-0.031,0.158l0.073-0.4h-41.123
			c-2.971,0-5.376-2.404-5.376-5.375s2.405-5.376,5.376-5.376h43.229l0.457-2.34l-0.452,2.34l-0.01,0.042
			c0.01-0.016,0.021-0.026,0.036-0.042c14.903-15.659,7.323-37.454,7.271-37.627l-0.011-0.016L239.274,112.884z"/>
	</g>
</g>
<g>
</g>
<g>
</g>
<g>
</g>
<g>
</g>
<g>
</g>
<g>
</g>
<g>
</g>
<g>
</g>
<g>
</g>
<g>
</g>
<g>
</g>
<g>
</g>
<g>
</g>
<g>
</g>
<g>
</g>
</svg>
